<svg width="268" height="291" viewBox="0 0 268 291" fill="none" xmlns="http://www.w3.org/2000/svg">
<path d="M60.5 87.5001L55 83.0001C57.5 77.5001 62.5 68 77 53C88.6 41 103.5 35.6667 109.5 34.5L156.5 34C157.333 34.6667 159.9 36.8 163.5 40C168 44 170 45.5 176 46.5C180.8 47.3 183.667 43.8333 184.5 42L185.5 39C186.167 37.6667 189.2 35 196 35C202.8 35 206.167 40.3333 207 43V73.5001C205.833 75 202.5 78 198.5 78H190C188.167 77.3333 185.5 75 183.5 71.5C181.912 68.7203 182.5 69.5 181.5 68.5C180.5 68 177 66 169 66C161 67.2 156 73.1667 154.5 76V87.5001H119.5C121.5 83.0001 122.5 81.0001 119.5 73.5001C116.5 66.0001 104 67.0001 93 69.0001C84.2 70.6001 67.6667 82.0001 60.5 87.5001Z" fill="white"/>
<path d="M121 101V105V105.5H134.5C134.333 104.833 134.1 103.1 134.5 101.5C135 99.5 136.5 99 137.5 99C138.5 99 139.5 100 140 101C140.4 101.8 138.833 104 138 105L120 121V125.5H153.5V119.5H138.5C151 109.5 154.5 106 154 102C153.5 98 153.5 99.5 151 97.5C149 95.9 144.167 94.8333 142 94.5H133C132.167 94.5 129.6 94.8 126 96C122.4 97.2 121.167 99.8333 121 101Z" fill="white"/>
<path fill-rule="evenodd" clip-rule="evenodd" d="M131.5 128H141C142.333 128 145.8 128.3 149 129.5C152.2 130.7 154 133 154.5 134L155.5 157.5C155.167 158.167 153.8 159.9 151 161.5C148.2 163.1 145.5 163.833 144.5 164H132C130.5 164 126.7 163.5 123.5 161.5C120.3 159.5 119.167 158 119 157.5V134C119.5 133 121.2 130.7 124 129.5C126.8 128.3 130.167 128 131.5 128ZM134.5 135.5V156C134.667 156.667 135.4 158 137 158C138.6 158 139 157 139 156.5V134C138.833 133.833 138.1 133.5 136.5 133.5C134.9 133.5 134.5 134.833 134.5 135.5Z" fill="white"/>
<path fill-rule="evenodd" clip-rule="evenodd" d="M131.356 166H141.507C142.932 166 146.636 166.35 150.055 167.75C153.474 169.15 155.397 171.833 155.932 173L157 200.417C156.644 201.194 155.184 203.217 152.192 205.083C149.2 206.95 146.315 207.806 145.247 208H131.89C130.288 208 126.227 207.417 122.808 205.083C119.389 202.75 118.178 201 118 200.417V173C118.534 171.833 120.351 169.15 123.342 167.75C126.334 166.35 129.932 166 131.356 166ZM134.562 174.75V198.667C134.74 199.444 135.523 201 137.233 201C138.942 201 139.37 199.833 139.37 199.25V173C139.192 172.806 138.408 172.417 136.699 172.417C134.989 172.417 134.562 173.972 134.562 174.75Z" fill="white"/>
<path fill-rule="evenodd" clip-rule="evenodd" d="M130.384 211H141.315C142.849 211 146.838 211.4 150.521 213C154.203 214.6 156.274 217.667 156.849 219L158 250.333C157.616 251.222 156.044 253.533 152.822 255.667C149.6 257.8 146.493 258.778 145.342 259H130.959C129.233 259 124.86 258.333 121.178 255.667C117.496 253 116.192 251 116 250.333V219C116.575 217.667 118.532 214.6 121.753 213C124.975 211.4 128.849 211 130.384 211ZM133.836 221V248.333C134.027 249.222 134.871 251 136.712 251C138.553 251 139.014 249.667 139.014 249V219C138.822 218.778 137.978 218.333 136.137 218.333C134.296 218.333 133.836 220.111 133.836 221Z" fill="white"/>
</svg>
